<?xml version="1.0" encoding="utf-8"?>
<!-- Generator: Adobe Illustrator 26.5.0, SVG Export Plug-In . SVG Version: 6.00 Build 0)  -->
<svg version="1.1" id="Layer_2" xmlns="http://www.w3.org/2000/svg" xmlns:xlink="http://www.w3.org/1999/xlink" x="0px" y="0px"
	 viewBox="0 0 1366 87" style="enable-background:new 0 0 1366 87;" xml:space="preserve">
<style type="text/css">
	.st0{fill:#006BB6;}
	.st1{fill:#FFFFFF;}
	.st2{fill:#AFDF6B;}
</style>
<g>
	<path class="st0" d="M680.6,5.5c-0.4,0-39.2-2.4-70.5,15.7l-17.3,11.4c-22.3,14.8-52.8,16.7-66.5,16.7c-3.9,0-6.4-0.1-7-0.2H0.1
		v38.6h1366V5.5L680.6,5.5L680.6,5.5z"/>
	<path class="st1" d="M519.6,44c0.4,0,42.9,2.7,70.4-15.6l17.5-11.5C628,5,651.1,1.5,665.8,0.6H0.1V44L519.6,44L519.6,44z"/>
	<path class="st2" d="M1366.1,0.5H680.8c-0.9-0.1-6.6-0.4-15,0.1h700.3v4.9h0V0.5z"/>
	<rect x="-0.1" y="44" class="st2" width="0.2" height="5"/>
	<path class="st2" d="M665.8,0.6C651.1,1.5,628,5,607.5,16.9L590,28.4C562.5,46.7,520,44,519.6,44l-0.1,0H0.1v5h519.2
		c0.6,0,3.1,0.2,7,0.2c13.7,0,44.2-1.8,66.5-16.7l17.3-11.4c31.3-18.1,70.1-15.7,70.5-15.7l0.1,0h685.4V0.6H665.8z"/>
</g>
</svg>
